<svg xmlns="http://www.w3.org/2000/svg" width="42" height="29" fill="none"><path fill="#fff" d="M31.796.058c-2.005 0-3.964.569-5.631 1.634a9.804 9.804 0 0 0-3.734 4.352 9.309 9.309 0 0 0-.577 5.603 9.575 9.575 0 0 0 2.774 4.965 10.285 10.285 0 0 0 5.189 2.654c1.966.375 4.004.183 5.856-.551a10.052 10.052 0 0 0 4.549-3.572 9.401 9.401 0 0 0 1.708-5.388 9.334 9.334 0 0 0-.771-3.71 9.682 9.682 0 0 0-2.197-3.146A10.176 10.176 0 0 0 35.674.797a10.533 10.533 0 0 0-3.878-.739Zm0 16.757a7.617 7.617 0 0 1-4.1-1.19 7.138 7.138 0 0 1-2.718-3.168 6.777 6.777 0 0 1-.42-4.08 6.97 6.97 0 0 1 2.02-3.614 7.488 7.488 0 0 1 3.778-1.932 7.689 7.689 0 0 1 4.264.402 7.318 7.318 0 0 1 3.31 2.6 6.844 6.844 0 0 1 1.244 3.922c-.002 1.872-.78 3.666-2.163 4.99-1.383 1.323-3.259 2.068-5.215 2.07ZM.07 28.942h7.543v-8.067h9.83v-5.16h-9.83V11.86h11.435V6.473H.069v22.469Z"/><path fill="#fff" d="m34.933 6.474-.844 4.257h-.046l-.946-4.257h-2.488l-.89 4.257h-.045l-.902-4.257h-2.624l1.837 7.51h2.772l1.016-4.573h.045l1.016 4.573h2.772l1.837-7.51h-2.51Z"/></svg>